<svg xmlns="http://www.w3.org/2000/svg" version="1.0" viewBox="0 0 498 444"><g fill="#000040" stroke-width="0"><path d="M50 221.5V399h398V44H50v177.5zM257 51c-1.2.8-1 1 .9 1 1.7 0 2.2.4 1.7 1.6-.3.8-.2 1.2.4.9.6-.3 1-.4 1-.2 0 .3 1.3 6.9 3 14.8 1.6 7.9 2.9 16.9 2.9 19.9-.1 6.3-2 10.3-4.6 9.3-1.1-.4-1.4-.3-.9.5 1 1.7-2.5 1.5-5-.3-1.2-.8-3.1-3.7-4.3-6.4-2.7-6.4-5.5-19.5-4.7-22.6.3-1.3.2-2.6-.4-3-.5-.3-.8-3.4-.7-7 .1-3.5.5-6.1.8-5.9.4.2 1-.5 1.4-1.6.5-1.6 1.5-2 5.3-2 3.4 0 4.3.3 3.2 1zm62.1 20.9c1.8 1.8 2.9 4 2.9 5.6 0 3.5-4 10.6-5.4 9.8-.6-.3-.8-.3-.4.2 1.1 1.2-1.1 4.7-2.5 3.9-.7-.4-.9-.4-.5.1 1 1-1 4.7-2.2 4-.5-.3-1.1.3-1.5 1.2-.3 1-2.6 3.4-5 5.3s-4.2 4-4 4.7c.2.7-.1 1.5-.7 1.9-.7.5-.8.2-.4-.7.6-1 .4-1-.6.1-1.3 1.5-6.8 2.2-6.8.9 0-.4-.8-.6-1.7-.5-1.1 0-1.7-.6-1.7-1.6.1-1-.2-1.6-.6-1.3-.5.3-.8-1.5-.7-4 .1-2.8.8-4.9 1.7-5.5.8-.5 1.5-1.3 1.5-1.8 0-.4 1.7-2.3 3.7-4.1 2.1-1.8 3.5-3.7 3.2-4.2-.3-.5-.1-.9.4-.9 1.1 0 3.6-2.4 9.2-8.8 2.5-2.9 5.3-5.2 6.3-5.2s1.5-.5 1.2-1c-1.3-2.2 1.8-.8 4.6 1.9zM202.5 81c.3.5 1.2 1 1.8 1 .7 0 .6-.4-.3-1-.8-.5-1.1-1-.6-1 1.7 0 7.6 4.2 7.1 5-.3.5 0 1.2.6 1.6.8.4.9.3.5-.4-1.9-3.1 1.4-.4 10.2 8.5 9 9.1 9.7 10.1 9.6 13.5-.2 4.4-3.1 8.7-5.9 8.8-1.7 0-1.8-.2-.5-1.1 1.2-.8 1-1-1-.5-1.9.4-3.9-.6-8.7-4.2-3.4-2.6-6.3-5.3-6.3-6 0-.7-1.1-1.7-2.5-2.2-1.4-.5-2.5-1.4-2.5-2 0-.5-.6-1-1.3-1-.8 0-2.2-.9-3.2-2s-1.5-2-1.1-2c.4 0 .1-.6-.6-1.4-.7-.8-1.7-1.3-2.2-1.3-.5.1-.9-2-.8-4.6 0-3.3.5-5.4 1.8-6.7 2.1-2.1 4.9-2.6 5.9-1zm62.5 39.1c-1.2.8-1 .9.8.4 3-.9 9.4.3 8.7 1.5-.4.6.1.7 1.1.3 1.3-.5 1.5-.3.9.7-.5.9-.4 1.1.4.6.7-.5 2.7.8 5.1 3.3 2.2 2.3 4 3.8 4 3.4 0-.4 1.1.8 2.5 2.7 1.4 1.9 2.3 4 2 4.8-.2.7-.1 1.1.3.8.8-.5 4.7 6.2 4.4 7.5-.1.6.1.7 8.7 1.5 3.5.4 5.8 1 5.1 1.4-.7.4 6.1.6 15.1.5 10.5-.2 15.3 0 13.4.6-2.3.6-1.8.7 2.3.3 5.7-.5 13.6 1.1 12.7 2.6-.3.6 0 .7.7.5.8-.3 2.2.2 3.3 1.1 1.1.8 1.4 1.2.6.8-.9-.4-1.2-.3-.7.4.4.6 1.4.8 2.3.5 1.1-.4 1.4-.3.9.5-.4.7-.2 1 .6.7.7-.2 2.9.9 4.8 2.6 1.9 1.7 2.8 2.8 2 2.4-.8-.4.1.6 2 2.1 6.1 4.9 11.1 10.6 10.6 12-.3.8 0 1.3.7 1.1.7-.1 1.1.6 1.1 1.5-.1 1 .2 1.5.7 1.3 1.2-.8 6.5 10.1 8.3 17.1 1.9 7.6 4.3 24 4.1 28.1-.1 1.8.1 3 .5 2.8.4-.2 3.1 16.1 6.1 36.3 4.7 32.1 5.4 38.6 5.3 51.7 0 11.7-.4 16.2-1.8 20.5-2.4 7.3-5.7 13.1-6.9 12.3-.6-.3-.7-.1-.3.5.4.6-3.3 5.1-8.7 10.4-5.2 5.1-9.9 10.3-10.6 11.6-.7 1.2-1.7 2-2.3 1.6-.6-.4-.8-.3-.5.3 1 1.6-12.4 14.9-16.9 16.8-4.9 2.1-45.4 3.6-45.4 1.6 0-.7-2.2-1.1-6.2-1-3.8.1-5.4.4-4 .7 1.2.4-4.9.8-13.7 1-11.1.2-16.6-.1-17.9-.9-1.5-.9-2.7-.9-5.2 0-2.3.7-3.7.8-4.4.1-.5-.5-1.5-1-2.1-1-.5 0-.3.5.5 1 1.1.7-.3.9-4.5.9-4.8-.1-5.4-.3-3-.9 2.7-.7 2.6-.8-1.5-.9-3.4 0-4.1.2-3 1 1.1.7-7.4.9-29 .5-16.8-.4-37.9-.7-47-.7-17.4 0-21.4-.4-20.3-2.2.4-.6.1-.7-.6-.3-.7.5-1.9 0-2.7-1-.9-1.1-1.3-1.3-.9-.7.8 1.7.2 1.6-4-.1-1.9-.8-3.5-2-3.5-2.6 0-.6-.4-.9-.8-.6-1.1.6-6.4-2.8-5.7-3.7.3-.4.2-.5-.1-.2-1 .7-4.4-1.4-4.4-2.7 0-1.3-5.6-6.8-6.9-6.8-1.4 0-6.2-8-5.5-9.2.4-.6.3-.8-.3-.5-1.3.8-4.6-5-3.9-6.9.3-.8.2-1.2-.4-.9-1.5.9-6.2-15.4-6.3-22.2-.1-3.3-.5-5.9-.8-5.8-.8.6-4.2-26.2-3.5-28 .3-.9.2-1.3-.4-1-.5.3-1-.4-.9-1.7 0-1.3-.7-6.8-1.6-12.3-.9-5.5-1.4-10.8-1.1-11.8.2-.9.1-1.5-.4-1.2-1.1.7-1.9-8.6-1.6-19 .3-8.8 2.9-20 4.5-19.1.4.3.8-.1.8-.8 0-1.9 4.3-8.6 5.4-8.6.6 0 .8-.4.5-.9-.3-.5 1.4-2.5 3.9-4.6 2.5-2 4.5-4.1 4.5-4.7 0-.6 1-1.9 2.2-3 1.3-1.1 2.3-2.5 2.3-3.1.1-.7.6-1.1 1.3-1 .7.2 1.1 0 1.1-.5-.3-1.9.2-3.2 1.4-3.2.6 0 1.9-1.5 2.8-3.3.9-1.7 2.2-3.1 2.9-2.9.6.1.9-.2.6-.7-.4-.5.2-1.6 1.2-2.3 1-.7 2.1-2.1 2.5-3.1.4-1.1 1.2-1.5 1.8-1.1.7.4.9.3.6-.3-.4-.6.2-2.2 1.4-3.4 1.1-1.3 1.7-1.7 1.3-.9-.4.9-.3 1.2.2.7s.9-1.3.9-1.8c0-1.4 8.5-11.9 9.6-11.9.6 0 .8-.4.5-.8-.2-.4 1-2.2 2.7-4 8.7-8.7 13.1-12.7 14.1-12.8 2.1-.2 4.6-1.6 4.1-2.4-.7-1.1 5.2-3.3 7-2.6 1 .3 1.3.2 1-.4-.4-.7 7-.9 22.4-.5 20.1.5 23.4.3 25.6-1.1 1.3-.8 2.6-1.5 2.9-1.5.4.1.5 0 .4-.2-.8-.7 6.2-10.8 10.2-14.8 5.3-5.3 8.5-7.3 10.2-6.3.7.5.8.3.3-.6-.6-1-.4-1.2.8-.7 1 .3 1.7.2 1.7-.3 0-1 3.4-1.6 9.5-1.8 3.1-.1 3.6.1 2.5.9z"/><path d="M259.8 120.7c.7.3 1.6.2 1.9-.1.4-.3-.2-.6-1.3-.5-1.1 0-1.4.3-.6.6zm45 29c.7.3 1.6.2 1.9-.1.4-.3-.2-.6-1.3-.5-1.1 0-1.4.3-.6.6zm-40 27c.7.3 1.6.2 1.9-.1.4-.3-.2-.6-1.3-.5-1.1 0-1.4.3-.6.6zm-68 1c.7.3 1.6.2 1.9-.1.4-.3-.2-.6-1.3-.5-1.1 0-1.4.3-.6.6zm21.5.5c.7.4-7.1.7-17.3.7-12.4 0-18.6.3-18.8 1-.2.6-.9.8-1.5.4-.7-.3-.9-.3-.5.2.4.4-.2 2.6-1.3 4.8-1.9 3.6-2 4.9-1.2 13.8.5 5.5.5 9.9.1 9.9-.3 0-.2 1.5.3 3.2.6 1.8 1.4 6 1.9 9.3.4 3.3 2.7 18.8 5.1 34.5 2.3 15.7 4.2 30.4 4.3 32.7.1 2.2.4 3.9.7 3.7.4-.2 1.2 2.9 1.8 7 .7 4 2.6 10.2 4.3 13.7 1.7 3.5 3.2 6.7 3.2 7.1.1.3.5 1 1 1.5s.6.2.1-.7c-.4-.8.3-.4 1.6 1 1.3 1.3 2.3 2.8 2.1 3.3-.1.5.2.6.7.2.6-.3 2.7.2 4.8 1 2.6 1.1 8.2 1.8 17.6 2.2 7.5.3 13.7 1 13.7 1.5 0 .4 6.9.8 15.3.9 8.3 0 38 .1 65.9.2 28 .1 50.8-.1 50.8-.5 0-.6 3.6-2.2 5.4-2.3.5 0 1.1-.9 1.4-2 1.1-4.1.2-31.6-.9-30.9-.4.2-.9-1.2-1.1-3.2-.2-1.9 0-3.8.5-4.1.5-.3.4-.8-.2-1.2-.6-.4-1.5-3.8-2-7.7-.5-3.8-1.6-12.5-2.5-19.4-.9-6.9-2.1-15.2-2.6-18.5-6.5-40.3-7.3-43.3-12.9-49.7-1.7-1.9-2.7-3.8-2.3-4.2.4-.4.2-.7-.3-.6-2.1.5-3.6 0-3-1 .3-.5 0-.7-.8-.4-.8.3-2.1-.1-2.8-.8-.8-.7-1.8-1.3-2.4-1.3-5.2-.2-15.4-1.9-15-2.4.2-.5-2.3-.7-5.6-.5-3.3.2-5.8 0-5.5-.4.4-.7-4.8-1-22.9-1.3-7.8-.1-8.9-.3-5-.8 2.8-.3-13.1-.6-35.2-.6-22 0-39.6.3-39 .7zm19.1 45.9c-.4.7 0 .9 1.4.5 1.2-.4 2.3-.2 2.8.5.5.8.3.9-.7.3-.8-.4 3.1 3.7 8.6 9.1 5.4 5.5 9 9.4 8 8.6-1.1-.8-.1.5 2.1 2.7 2.3 2.2 4 4.3 3.7 4.6-.3.2.7 1.2 2.2 2.2 3.7 2.4 5.2 6.1 4.7 11.7-.3 3.9-.9 5.1-2.8 5.9-1.3.6-2.1 1.4-1.9 1.9.3.4-.4 1.1-1.6 1.4-1.4.5-2.5.2-3-.6-.6-1-.9-1-.9-.2 0 2.1-4.2-.5-7.5-4.7-1.6-2.1-3.8-4.1-4.8-4.3-1-.3-2.1-1.5-2.4-2.6-.3-1.2-1-2.1-1.5-2.1s-.6-.5-.2-1.2c.4-.6.3-.8-.3-.5-.5.4-2.3-.7-3.8-2.3-2.3-2.5-3.1-2.7-4.4-1.7-1.2.9-1.3.9-.7-.1.4-.6.5-1.2.1-1.2-.3 0-1 1.1-1.5 2.5s-1.6 2.5-2.4 2.5c-.7 0-2 .8-2.7 1.7-1 1.1-1 1.4-.1.9 2.8-1.7.8.9-5.5 6.9-3.7 3.5-7.1 6.1-7.6 5.8-.6-.3-.7-.1-.3.5 1 1.6-2.6 1.5-4.3-.1-1.1-1-1.3-1-.7 0 1.3 2.4-.9 1.3-3.8-1.7-2.4-2.6-2.8-3.9-2.8-8.7 0-5.4.1-5.6 5.4-10.7 3-2.8 4.5-4.4 3.3-3.6-1.2.8-.4-.2 1.8-2.3 2.2-2 3.6-3.7 3.2-3.7-.4 0-.2-.7.5-1.5s1.6-1.2 2.1-.9c.5.3.8.2.7-.3-.5-1.3 5.3-8.3 6.8-8.3.8 0 1.4-.3 1.4-.8 0-1.7 6-7.2 8-7.2 1.3 0 1.9.4 1.4 1.1zm87.1 2.3c1.7 1.7 5.2 5.6 7.9 8.6s4.5 4.8 4 4c-.5-.9-.1-.7.8.5 1 1.1 2.4 2.7 3.1 3.5.7.8 2.1 2.8 3 4.3 1 1.5 2.3 2.5 2.9 2.1.7-.4.8-.3.4.4-.3.6.3 1.6 1.4 2.2 1.1.6 1.7 1.6 1.4 2.2-.4.7-.3.8.4.4 1.4-.8 4.2 4.4 4.2 7.8 0 3.8-1.8 7.8-3.2 7-.6-.4-.8-.3-.5.3 1.1 1.8-2.7 4.2-6.3 4.1-2.6-.1-4.3-1-7.2-4.1-2.1-2.2-3.8-4.4-3.8-4.9 0-.4-.5-.7-1.2-.6-.6.2-1.6-.7-2.3-1.8-1.6-3.2-3.7-5.5-4.3-4.9-.3.3-1.2-.1-2.1-.9-1.6-1.4-7.2-2.8-6.8-1.7.1.3-.1.6-.5.6-1.2 0-5.7 4.8-5.5 5.9.1.6-.4 1-1 .9-.7-.2-1.2 0-1.1.5.3 1.4-9.2 10.3-10.4 9.6-.6-.4-.8-.3-.5.3.4.6-.8.9-3.3.7-4.3-.3-7.6-2.6-6.4-4.5.4-.7.3-.9-.4-.5-2.1 1.3-2.8-5.1-.7-6.6.6-.5.5-.8-.2-.8-2.6 0-1.1-2.9 4-8.1 6.6-6.7 12.6-13.6 10.9-12.5-.7.4 2-2.4 6-6.3s6.9-7.1 6.5-7.1c-.4 0-.2-.6.5-1.4.7-.8 1.6-1.2 2.1-.9.4.2.7 0 .7-.6 0-2 4.6-.6 7.5 2.3zm-17.7 106.3c2.8.2 7.6.2 10.5 0 2.8-.2.5-.3-5.3-.3s-8.1.1-5.2.3zm27.5 0c1.5.2 3.9.2 5.5 0 1.5-.2.2-.4-2.8-.4s-4.3.2-2.7.4zm20 0c1.5.2 3.7.2 5 0 1.2-.2 0-.4-2.8-.4-2.7 0-3.8.2-2.2.4zm11.5 0c.6.2 1.8.2 2.5 0 .6-.3.1-.5-1.3-.5-1.4 0-1.9.2-1.2.5z"/></g><g stroke-width="0"><path d="M249 50.8c0 .4 1.7.6 3.8.4 5.8-.5 6.2-1 1-1.1-2.7-.1-4.8.3-4.8.7zm10.4 3.2c.3 1.4 1.2 5.6 2.1 9.5.9 3.8 2.4 11.3 3.4 16.5 1.1 5.2 1.9 8.2 2 6.7.1-3.6-5.6-31.3-6.9-33.5-.8-1.4-.9-1.2-.6.8zm-13.2 9c0 1.9.2 2.7.5 1.7.2-.9.2-2.5 0-3.5-.3-.9-.5-.1-.5 1.8zm.9 7.7c-.2 3.7 2.8 16.2 5 21.4 2.3 5.3 5.1 8 8.4 7.8 1.3 0 .9-.4-1.2-1-3.7-1.1-5.9-5.3-8.6-16.4-3.2-13.1-3.5-14.1-3.6-11.8zm69-.2c1.4.8 3.2 2.7 3.8 4.4 1.1 2.5 1 3.6-.8 7.6-1.1 2.6-3.5 6.4-5.2 8.6-1.7 2.2-2.9 4.2-2.6 4.5 1.1 1.1 10.7-14.8 10.7-17.8 0-3.1-4.7-8.8-7.2-8.8-.7.1-.1.7 1.3 1.5zm-6.2 2.2c-1.3 1.7-1.3 1.7.6.3 1.1-.8 2.2-1.6 2.4-1.7.2-.2 0-.3-.6-.3s-1.7.8-2.4 1.7zm-111.1 8c.6.2 1.8.2 2.5 0 .6-.3.1-.5-1.3-.5-1.4 0-1.9.2-1.2.5zm6.5.9c1.5.8 2.7 1.9 2.7 2.4 0 .6.6 1 1.4 1 .7 0 1.9.7 2.6 1.6.8.8 2.3 2 3.4 2.6 2.1 1.1 2.1 1.1.2-1-2.1-2.5-10.8-8.2-12.2-8.2-.5.1.3.8 1.9 1.6zM195 84c-.6 1.1-.7 2-.2 2 .6 0 1.2-.9 1.5-2 .3-1.1.3-2 .1-2-.2 0-.8.9-1.4 2zm71 8.3c0 1.2-.7 3.4-1.6 4.7l-1.6 2.5 2.1-2.4c1.8-2 3-7.1 1.6-7.1-.3 0-.5 1-.5 2.3zm-71.5.7c.3.5.8 1 1.1 1 .2 0 .4-.5.4-1 0-.6-.5-1-1.1-1-.5 0-.7.4-.4 1zm5 5c1 1.1 2.3 2 2.8 2 .6 0 .2-.9-.8-2s-2.3-2-2.8-2c-.6 0-.2.9.8 2zm88-.9c-.4.6-.5 1.2-.2 1.5.2.3.7-.2 1-1.1.7-1.7.1-2-.8-.4zm-57.5 6.7c.6 1.3 1.4 2.1 1.8 1.8.3-.4-.2-1.4-1.2-2.4-1.8-1.6-1.8-1.6-.6.6zm57.1 0c-.1 2 1.8 5.2 3.1 5.2.7 0 .5-.7-.4-1.8-.9-.9-1.8-2.4-2.1-3.2-.4-1-.6-1.1-.6-.2zm-78.1 1.9c.1.9 12.3 10.3 13.4 10.3 1 0-11.7-10.9-12.6-11-.5 0-.8.3-.8.7zm89 1.8c-.7.9-1 1.8-.6 2.2.3.3.6.1.6-.6s.4-1 .9-.6c.5.3 1.2.1 1.5-.4 1.1-1.7-1.1-2.1-2.4-.6zm-68 4c0 .8.2 1.5.4 1.5s.6-.7 1-1.5c.3-.8.1-1.5-.4-1.5-.6 0-1 .7-1 1.5zm-4.4 4c-1.9 1.5-1.9 1.5.2 1.5 1.3 0 2.2-.6 2.2-1.5 0-1.8 0-1.8-2.4 0zm29.9 4.4c-2 .4.1.7 6 .7 7.3 0 9.9.4 13.5 2.2 2.4 1.2 4.6 1.9 4.8 1.7.3-.3-1.5-1.4-3.9-2.4-4.9-2.2-15.8-3.4-20.4-2.2zm-8.7 3.1c-2 1.1-3.9 2.4-4.3 2.9-.6 1 4.7-1.4 8-3.6 2.9-1.9.5-1.5-3.7.7zm38.9 7.6c-.4.4.6 2.3 2.1 4.3 1.6 2 3.4 5 4.1 6.7 1.7 4.4 6.3 7.5 11.6 7.8 2.5.1 5-.1 5.7-.6.8-.4-.8-.8-3.7-.8-6.9 0-9.5-1.7-13-8.1-3.9-7.1-6-10-6.8-9.3zm-51.5 5.1c-1.5 2.6-3.9 6-5.4 7.5-1.4 1.5-2.3 2.8-1.9 2.8 1.4 0 6.8-6.6 8.8-10.8 2.7-5.6 1.9-5.4-1.5.5zm-59.5 11.8c-2.1.7-4.2 1.6-4.5 2-.8.7 4.4-.4 6.8-1.5.8-.3 4.9-.8 9-.9 4.1-.2 7.7-.5 7.9-.7 1.1-1.1-15.9-.1-19.2 1.1zm147 2.2c1.8.2 5 .2 7 0 2.1-.2.7-.4-3.2-.4-3.8 0-5.5.2-3.8.4zm13.1 0c1.2.2 3 .2 4 0 .9-.3-.1-.5-2.3-.4-2.2 0-3 .2-1.7.4zm-169.3 2.8c-1.6 1.3-2.5 2.4-1.9 2.5.6 0 2.1-1.1 3.4-2.5 3-3.2 2.4-3.2-1.5 0zm181.9-.6c4.1 1.2 9.3 3.6 12.5 5.9 7.2 4.9 9.4 6.1 5.6 2.7-5.5-4.7-15-9.5-20.1-10-4.7-.5-4.6-.4 2 1.4zm-192.5 10.3c-3 2.7-6.2 6.8-5.2 6.8.6 0 2.6-1.8 4.3-4 3.2-4.1 3.5-5 .9-2.8zM377.2 174c7 9.9 11.6 20.4 13.7 31 1.1 5.2 2 8.1 2 6.5.1-4.8-3.6-19-6.5-24.8-3.3-6.5-9.6-15.8-12-17.7-1-.8.3 1.4 2.8 5zm-236.7 5.5c-4.3 5.3-7.5 9.8-7.3 10.1.3.2 1.2-.6 2-1.8.9-1.3 4.3-5.6 7.7-9.6 5.7-6.8 6.7-8.2 5.7-8.2-.2 0-3.8 4.3-8.1 9.5zm98-2.5c-5.5.4 1.4.6 17.5.6 19.5.1 23.7-.1 16-.6-12.3-.9-21-.9-33.5 0zm-46.5.7c-4.1.2-7.9.9-8.5 1.5-.7.7-.6.9.2.4.6-.3 8.9-.6 18.4-.7 10.7 0 16.7-.4 15.8-1-1.3-.8-10-.9-25.9-.2zm98.3 1c1.5.2 3.9.2 5.5 0 1.5-.2.2-.4-2.8-.4s-4.3.2-2.7.4zm17.2.2c2.4 1 15.2 2 13.3 1-.7-.3-4.4-.9-8.3-1.3-4.2-.3-6.2-.2-5 .3zM179 182.2c-2.9 3.1-3.2 5-2.6 16.4.5 11.4.4 10.4 1.4 10.4.4 0 .4-4.5-.1-10-.9-9.6-.8-10.1 1.6-14.5 2.8-5 2.8-5.6-.3-2.3zm145.3-1.5c.9.2 2.3.2 3 0 .6-.3-.1-.5-1.8-.5-1.6 0-2.2.2-1.2.5zm7.3 0c-.7.7 14.5 3.4 15.3 2.7.4-.3-5.9-2-11-2.8-1.9-.4-3.9-.3-4.3.1zm19.5 5.3c4.5 2.4 9.6 8.1 11.8 13.4 1.6 3.5 5.5 24 7.7 40.1.4 2.7.9 4.4 1.1 3.8.5-1.5-3.2-29.3-4.9-36.7-1.7-7.7-7.2-16.3-12.6-19.7-2.5-1.6-5.1-2.9-5.6-2.9-.6.1.5.9 2.5 2zm-221.7 7.2c-3.9 4.4-4.6 6.2-1 2.4 2-2.1 3.6-4 3.6-4.2 0-.8-.7-.3-2.6 1.8zm-8.7 10.3c-1 1.4-1.4 2.5-1 2.5.4 0 1.6-1.2 2.6-2.5 1-1.4 1.4-2.5 1-2.5-.4 0-1.6 1.2-2.6 2.5zm57.9 16.1c.4 3.2 1 7.9 1.4 10.4.5 2.4.6 4.8.3 5.2-.2.5.1 3.2.7 6.1.6 3 2.6 15.2 4.5 27.3 1.9 12 4.2 25.9 5 30.8 1.5 8.8 5.9 20.6 7.7 20.6.5 0 2.3 1.5 4.2 3.3 4 4.1 8.8 5.5 21.9 6.7 13 1.2 16.7 1.2 16.7.1 0-.4-6.2-1.1-13.7-1.4-10.7-.4-14.8-1-18.4-2.5-10-4.3-14.6-12.9-18.3-34.2-2.3-12.8-8.3-53.4-10.6-70.8-1.1-8.1-2.3-9.5-1.4-1.6zm214.4.7c0 3.1.5 5.9 1.1 6.2.7.5.8-1.1.4-5.2-.9-7.6-1.5-8-1.5-1zM107.5 219c-1 1.1-1.3 2-.7 2 .6 0 1.6-.9 2.2-2 .6-1.1.9-2 .7-2-.2 0-1.2.9-2.2 2zm-5.9 8.8c-3 4.9-6.6 15.1-6.6 18.6 0 2.3 1.3-.7 2.1-4.8.9-4.7 3.1-10 6.9-16 1.2-2 1.9-3.6 1.7-3.6-.3 0-2.1 2.6-4.1 5.8zm130.8-3.3c-2.5 1.9-1.5 1.9 2.7 0 2.5-1 2.9-1.4 1.3-1.5-1.1 0-2.9.7-4 1.5zm6.6-.1c0 .2.7.7 1.6 1 .8.3 1.2.2.9-.4-.6-1-2.5-1.4-2.5-.6zm156 3.9c-.3.3 1.2 12.2 3.2 26.4 2.1 14.2 4.4 30.7 5.2 36.6.8 6 1.7 11.1 2 11.4 1.2 1.2.6-3.9-4.4-37.9-5.8-39.8-5.4-37.1-6-36.5zm-174.4 8.4c-2.8 3.1-4.6 5.4-4 5.2 1.5-.6 10.8-10.9 9.8-10.9-.5 0-3.1 2.6-5.8 5.7zm115.9 2.7c1 1.4 1.9 2.6 2.2 2.6.7 0-1.7-3.9-2.8-4.6-.6-.3-.3.5.6 2zm-80.5 2c0 .2.8 1 1.8 1.7 1.5 1.3 1.6 1.2.3-.4s-2.1-2.1-2.1-1.3zm-44.6 5.8-2.9 3.3 3.3-2.9c3-2.8 3.7-3.6 2.9-3.6-.2 0-1.6 1.5-3.3 3.2zm161.3 4.8c.7 10 3 23.6 3.2 19.1.1-4.3-1.8-19.5-2.9-23.6-.6-2-.7-.5-.3 4.5zM240 255.5c3.5 3.7 4.6 4.4 3.4 2.2-1.3-2.3-4.7-5.7-5.8-5.7-.5 0 .5 1.6 2.4 3.5zm110.8 1.5c2.2 4.6 2.3 5.2 1.1 9.1-1 3.1-2.3 4.7-4.9 6-2.6 1.4-3 1.9-1.4 1.9 5.7 0 10.2-10.6 7.1-16.7-2.7-5.2-4.5-5.5-1.9-.3z"/><path d="M204.8 254.7c-1.8 2.2-3 5.3-2 5.3.7 0 4.5-7 3.8-7-.1 0-1 .8-1.8 1.7zm61.4-1c.3.5 1.1 2.3 1.8 4 1.3 3 3 4.4 3 2.5 0-1.1-3.9-7.2-4.6-7.2-.3 0-.4.3-.2.7zm50.6.7c-1 .7-1.8 1.7-1.8 2.2 0 .4.5.3 1.2-.4 1.7-1.7 4.8-1.5 7 .5 1 .9 1.8 1.1 1.8.5 0-1.2-3.9-4.2-5.5-4.2-.5 0-1.8.7-2.7 1.4zm-85.8 1.1c-.8.9-.8 1.5-.2 1.5 1.2 0 2.6-1.9 1.9-2.6-.2-.2-1 .2-1.7 1.1zm55.2 1.7c-1.4 1.4-1.6 3.8-.3 3.8.8 0 2.3-4.1 1.7-4.7-.1-.1-.8.3-1.4.9zM95 259c0 3.1 4.9 33.3 5.5 33.8.6.7.2-3.3-2.1-17.1-.8-4.8-1.4-10.2-1.4-12 0-1.7-.5-3.9-1-4.7-.9-1.3-1-1.3-1 0zm131.5 2c-1 1.1-1.3 2-.8 2 1.3 0 3.8-2.9 3.1-3.5-.3-.3-1.3.4-2.3 1.5zm18.5-.3c0 1.3 2.9 3.8 3.5 3.1.3-.3-.4-1.3-1.5-2.3-1.1-1-2-1.3-2-.8zm63.1 2.5c-1.4 2.3-1.4 2.3.8.4 2.2-2 2.5-2.6 1.3-2.6-.4 0-1.3 1-2.1 2.2zm20.9-1.4c0 .5.7 1.5 1.5 2.2.8.7 1.5.8 1.5.2 0-.5-.7-1.5-1.5-2.2-.8-.7-1.5-.8-1.5-.2zm-43.7 2.4c-.2 2.6 1.3 5.7 4 8 3.1 2.8 3.4 2.1.4-1-1.8-1.9-2.7-3.9-2.7-6 0-3.6-1.5-4.4-1.7-1zm-82.6 2.6c.3 1.2.9 2.5 1.4 2.8 1.4.8 1.1-1-.6-3.2-1.3-1.8-1.4-1.8-.8.4zm65.9.8c-.4.9-.4 1.9-.1 2.2.2.3.7-.3 1.1-1.2.4-.9.4-1.9.1-2.2-.2-.3-.7.3-1.1 1.2zm-13.6 3.3c0 .4 1.1 1.3 2.5 1.9 1.4.6 2.5.8 2.5.4s-1.1-1.2-2.5-1.9c-1.4-.6-2.5-.8-2.5-.4zm-47.8 1.7c1 1 2 1.5 2.4 1.2.3-.4-.5-1.2-1.8-1.8-2.2-1.2-2.2-1.2-.6.6zm90.4-.1c-1.1.8-1.5 1.5-1 1.5.6 0 1.9-.7 3-1.5 1-.8 1.5-1.4.9-1.4-.5 0-1.9.6-2.9 1.4zm-84.6.5c-2.1.7-2.1.8-.5.9 1.1 0 2.7-.4 3.5-.9 1.8-1.1.5-1.1-3 0zm48 .2c0 1.1 2.2 1 3.9-.1 1-.7.7-.9-1.2-.8-1.5.1-2.7.5-2.7.9zm78.8 0c.5.5 1.6.8 2.3.6.8-.3.3-.7-1-1.1-1.7-.4-2.1-.3-1.3.5zm36.3 5.4c.1 2.1.5 5 1 6.4.5 1.7.7.7.4-3.4-.5-6.7-1.6-8.9-1.4-3zm1.8 9.9c-.4.3-.3 2.5.1 4.8s1.4 9.7 2.1 16.4c1.4 13.9 1 16.1-4.3 19.3-2.1 1.3-2.7 2-1.6 2 .9 0 3.1-1.5 4.8-3.3l3.2-3.2-.6-10.5c-.7-11.9-2.8-26.4-3.7-25.5zm-277.3 10.1c1.9 13.9 4.2 27.6 4.3 25.4.1-3.5-3.6-29-4.3-29.7-.3-.4-.3 1.6 0 4.3zm305.6 9.4c-.7 1.4-.6 16.8.1 16.1.4-.4.6-4.3.4-8.7-.1-4.3-.4-7.7-.5-7.4zm-300.6 24.5c.3 3.3 1.9 10 3.5 15 3.1 9.1 10.7 22.8 13.4 23.8.8.4-.2-1.5-2.2-4.1-6.5-8.5-10.2-17.7-14.2-36.2-1-4.3-1-4.3-.5 1.5zm299-.5c-.5 2.5-1.4 5.6-2.1 7-.7 1.4-1.9 4-2.6 5.9-.7 1.8-2.4 4.7-3.7 6.3-1.3 1.6-2.2 3.1-1.9 3.4.3.3 2.1-1.8 4.1-4.7 4-6 7.9-16.7 7.4-20.1-.3-1.6-.6-.9-1.2 2.2zm-120.3-.3c.9.2 2.3.2 3 0 .6-.3-.1-.5-1.8-.5-1.6 0-2.2.2-1.2.5zm5.5 0c.6.2 1.8.2 2.5 0 .6-.3.1-.5-1.3-.5-1.4 0-1.9.2-1.2.5zm20.7.3c19.9.7 60.3.5 61.2-.4.4-.3-17.1-.5-38.8-.4-30.9.1-35.7.3-22.4.8zm75.4 30.7c-1.3 1.6-1.2 1.7.4.4.9-.7 1.7-1.5 1.7-1.7 0-.8-.8-.3-2.1 1.3zm-10.5 11c-4.3 5.4-5.2 7.4-1.5 3.3 3.1-3.5 5.5-7 4.8-7-.2 0-1.7 1.7-3.3 3.7zM129 377.9c0 .8 1.4 1.9 7.8 5.8 3.7 2.3 2.6 1.2-3-3.1-2.7-2-4.8-3.2-4.8-2.7zm11 7.7c0 .5 6.5 3.4 7.7 3.4.4 0 .2-.5-.3-1-1.1-1.1-7.4-3.1-7.4-2.4zm222.9 1.2c-5.2 3.9-7.6 4.2-28.9 4.2-15.2 0-21 .3-21 1.1 0 .9 5.5 1.1 20.8.7 18.6-.5 21.2-.8 25.4-2.8 2.6-1.2 5.2-2.8 5.9-3.6 1.6-1.9.7-1.8-2.2.4zm-211.4 3.7c1.7.8 5.3 1.4 8 1.3h5l-4-.8c-2.2-.4-5.8-1-8-1.3l-4-.5 3 1.3zm13.6.9c.2.2 19.3.6 42.4 1 28.6.5 41.5.3 40.5-.4-1.4-.9-84-1.6-82.9-.6zm87.4.6c-2.4.6-1.9.8 2.9.9 3.3 0 5.7-.1 5.4-.4-1-1-5.2-1.2-8.3-.5zm9.5 0c0 1.2.8 1.2 3.5 0 1.8-.8 1.7-.9-.7-.9-1.6-.1-2.8.3-2.8.9zm9.9.3c.4.4 5.5.6 11.2.5l10.4-.3-11.2-.5c-6.2-.3-10.9-.1-10.4.3zm29.9.4c.6.2 1.8.2 2.5 0 .6-.3.1-.5-1.3-.5-1.4 0-1.9.2-1.2.5z"/></g><path fill="#404040" d="M252.3 51.7c.9.2 2.3.2 3 0 .6-.3-.1-.5-1.8-.5-1.6 0-2.2.2-1.2.5zm-5.1 11.8c0 1.6.2 2.2.5 1.2.2-.9.2-2.3 0-3-.3-.6-.5.1-.5 1.8zm.9 8.1c0 1.1.3 1.4.6.6.3-.7.2-1.6-.1-1.9-.3-.4-.6.2-.5 1.3zm58.4 5.6-5 5.3 5.3-5c4.8-4.6 5.7-5.5 4.9-5.5-.1 0-2.5 2.4-5.2 5.2zm13.6.4c0 1.1.3 1.4.6.6.3-.7.2-1.6-.1-1.9-.3-.4-.6.2-.5 1.3zm-6.3 12.1c-1.8 2.1-3.1 4.3-2.5 4.3.2 0 1.3-1.4 2.5-3 2.5-3.3 2.4-4.1 0-1.3zM265.2 91c0 1.4.2 1.9.5 1.2.2-.6.2-1.8 0-2.5-.3-.6-.5-.1-.5 1.3zM200 96.4c0 .2.8 1 1.8 1.7 1.5 1.3 1.6 1.2.3-.4s-2.1-2.1-2.1-1.3zm107.9 1.3c-1.3 1.6-1.2 1.7.4.4.9-.7 1.7-1.5 1.7-1.7 0-.8-.8-.3-2.1 1.3zm-95.9 8.7c0 .2.8 1 1.8 1.7 1.5 1.3 1.6 1.2.3-.4s-2.1-2.1-2.1-1.3zm84.9 1.3c-1.3 1.6-1.2 1.7.4.4 1.6-1.3 2.1-2.1 1.3-2.1-.2 0-1 .8-1.7 1.7zm-78.9 3.8c1.3 1.4 2.6 2.5 2.8 2.5.3 0-.5-1.1-1.8-2.5s-2.6-2.5-2.8-2.5c-.3 0 .5 1.1 1.8 2.5zm35.8 10.2c.6.2 1.8.2 2.5 0 .6-.3.1-.5-1.3-.5-1.4 0-1.9.2-1.2.5zm13.3-.3c.2.2 2 .6 3.9 1 2.5.4 3.1.3 2-.4-1.4-.9-6.9-1.5-5.9-.6zm9.3 3c1.1.9 2.4 1.6 3 1.6 1.2 0 .7-.5-2.4-1.9-2.4-1.1-2.4-1.1-.6.3zm-31.6 1.2c-3.8 2-3.6 2.8.2.9 1.7-.9 3-1.8 3-2 0-.7-.1-.6-3.2 1.1zm36.2 1.8c0 .2.7.7 1.6 1 .8.3 1.2.2.9-.4-.6-1-2.5-1.4-2.5-.6zm4 5c0 .2.8 1 1.8 1.7 1.5 1.3 1.6 1.2.3-.4s-2.1-2.1-2.1-1.3zm-49.5 2.7c-.4.6-.5 1.2-.2 1.5.2.3.7-.2 1-1.1.7-1.7.1-2-.8-.4zm-53.2 12.6c.9.2 2.3.2 3 0 .6-.3-.1-.5-1.8-.5-1.6 0-2.2.2-1.2.5zm116.7 1.7c0 .2.9.6 2 .9 1.1.3 1.8.1 1.4-.4-.5-.9-3.4-1.3-3.4-.5zm23.8 1.3c2.3.2 6.1.2 8.5 0 2.3-.2.4-.4-4.3-.4s-6.6.2-4.2.4zm37.2 7.7c0 .2 1.4 1.4 3 2.6 1.7 1.2 3 1.9 3 1.6 0-.2-1.3-1.4-3-2.6-1.6-1.2-3-1.9-3-1.6zm-205.1 5.3c-1.3 1.6-1.2 1.7.4.4.9-.7 1.7-1.5 1.7-1.7 0-.8-.8-.3-2.1 1.3zm-10 12c-1.3 1.6-1.2 1.7.4.4 1.6-1.3 2.1-2.1 1.3-2.1-.2 0-1 .8-1.7 1.7zm67.9 1c.7.3 1.6.2 1.9-.1.4-.3-.2-.6-1.3-.5-1.1 0-1.4.3-.6.6zm20.5 0c2.6.2 6.8.2 9.5 0 2.6-.2.4-.3-4.8-.3s-7.4.1-4.7.3zm37.5 0c2.3.2 6.1.2 8.5 0 2.3-.2.4-.4-4.3-.4s-6.6.2-4.2.4zm-79.5 1c.9.2 2.5.2 3.5 0 .9-.3.1-.5-1.8-.5-1.9 0-2.7.2-1.7.5zm107.5 0c.6.2 1.8.2 2.5 0 .6-.3.1-.5-1.3-.5-1.4 0-1.9.2-1.2.5zm8 0c.6.2 1.8.2 2.5 0 .6-.3.1-.5-1.3-.5-1.4 0-1.9.2-1.2.5zm10 1c.6.2 1.8.2 2.5 0 .6-.3.1-.5-1.3-.5-1.4 0-1.9.2-1.2.5zm-175.9 2c-1.3 1.6-1.2 1.7.4.4.9-.7 1.7-1.5 1.7-1.7 0-.8-.8-.3-2.1 1.3zm180.9-1c.6.2 1.8.2 2.5 0 .6-.3.1-.5-1.3-.5-1.4 0-1.9.2-1.2.5zm14 1c.6.2 1.8.2 2.5 0 .6-.3.1-.5-1.3-.5-1.4 0-1.9.2-1.2.5zm5.3.7c.2.2 1.8.6 3.4 1 2.2.5 2.6.4 1.5-.4-1.4-.9-5.9-1.5-4.9-.6zM384 187c.6 1.1 1.3 2 1.6 2 .2 0 0-.9-.6-2s-1.3-2-1.6-2c-.2 0 0 .9.6 2zm5.1 12.6c0 1.1.3 1.4.6.6.3-.7.2-1.6-.1-1.9-.3-.4-.6.2-.5 1.3zm-273.2 11.1c-1.3 1.6-1.2 1.7.4.4.9-.7 1.7-1.5 1.7-1.7 0-.8-.8-.3-2.1 1.3zm61.1 3.7c0 1.9.3 3.7.8 4 .4.2.6-1.3.4-3.5-.5-4.8-1.2-5.1-1.2-.5zm-70.1 7.3c-1.3 1.6-1.2 1.7.4.4.9-.7 1.7-1.5 1.7-1.7 0-.8-.8-.3-2.1 1.3zm208.7 3.8c-1.1.8-1.5 1.5-.9 1.5s1.6-.7 2.3-1.5c1.6-1.9 1.1-1.9-1.4 0zm-83.6.5c-.9.6-1 1-.3 1 .6 0 1.5-.5 1.8-1 .8-1.2.4-1.2-1.5 0zm6-.6c0 .2.7.7 1.6 1 .8.3 1.2.2.9-.4-.6-1-2.5-1.4-2.5-.6zm-59 4.2c0 1.6.5 3.6 1 4.4.6 1 .7.2.3-2.5-.7-4.9-1.3-5.8-1.3-1.9zm63-1.6c0 .5.5 1 1.1 1 .5 0 .7-.5.4-1-.3-.6-.8-1-1.1-1-.2 0-.4.4-.4 1zm-18.6 7.2-2.9 3.3 3.3-2.9c3-2.8 3.7-3.6 2.9-3.6-.2 0-1.6 1.5-3.3 3.2zm107.6-.7c1.3 1.4 2.6 2.5 2.8 2.5.3 0-.5-1.1-1.8-2.5s-2.6-2.5-2.8-2.5c-.3 0 .5 1.1 1.8 2.5zm-82.5.5c1 1.1 2 2 2.3 2 .3 0-.3-.9-1.3-2s-2-2-2.3-2c-.3 0 .3.9 1.3 2zm122.7.5c0 1.6.2 2.2.5 1.2.2-.9.2-2.3 0-3-.3-.6-.5.1-.5 1.8zM252 238.4c0 .2.8 1 1.8 1.7 1.5 1.3 1.6 1.2.3-.4s-2.1-2.1-2.1-1.3zm85 3c0 .2.8 1 1.8 1.7 1.5 1.3 1.6 1.2.3-.4s-2.1-2.1-2.1-1.3zm-38.1 2.3c-1.3 1.6-1.2 1.7.4.4 1.6-1.3 2.1-2.1 1.3-2.1-.2 0-1 .8-1.7 1.7zm-38.9 3.7c0 .2.8 1 1.8 1.7 1.5 1.3 1.6 1.2.3-.4s-2.1-2.1-2.1-1.3zm3 4c0 .2.8 1 1.8 1.7 1.5 1.3 1.6 1.2.3-.4s-2.1-2.1-2.1-1.3zm-31.6 2.8-1.9 2.3 2.3-1.9c1.2-1.1 2.2-2.1 2.2-2.3 0-.8-.8-.2-2.6 1.9zm92.1.8c1 1.1 2 2 2.3 2 .3 0-.3-.9-1.3-2s-2-2-2.3-2c-.3 0 .3.9 1.3 2zm-9.6.7c-1.3 1.6-1.2 1.7.4.4.9-.7 1.7-1.5 1.7-1.7 0-.8-.8-.3-2.1 1.3zm-130.8 1.9c0 1.1.3 1.4.6.6.3-.7.2-1.6-.1-1.9-.3-.4-.6.2-.5 1.3zm61.9 1.7c0 .2 1.5 1.6 3.3 3.3l3.2 2.9-2.9-3.3c-2.8-3-3.6-3.7-3.6-2.9zm84 1.1c0 .2.8 1 1.8 1.7 1.5 1.3 1.6 1.2.3-.4s-2.1-2.1-2.1-1.3zm23.1 2.2c0 1.1.3 1.4.6.6.3-.7.2-1.6-.1-1.9-.3-.4-.6.2-.5 1.3zm-167.9 2.9c0 1.6.2 2.2.5 1.2.2-.9.2-2.3 0-3-.3-.6-.5.1-.5 1.8zm-87.1 2.1c0 1.1.3 1.4.6.6.3-.7.2-1.6-.1-1.9-.3-.4-.6.2-.5 1.3zm155.4.4c1 1.1 2 2 2.3 2 .3 0-.3-.9-1.3-2s-2-2-2.3-2c-.3 0 .3.9 1.3 2zm48 1.6c-1.8 1.6-2.2 2.2-.9 1.5 1.8-.9 5.3-4.2 4.3-4.1-.2.1-1.7 1.2-3.4 2.6zm-10.8 1.5c1.2 1.2 2.4 2.1 2.7 1.8.2-.2-.8-1.3-2.2-2.3l-2.7-1.9 2.2 2.4zm-33 0c.7.7 1.5 1 1.8.7.3-.3-.2-.9-1.2-1.2-1.4-.6-1.5-.5-.6.5zm119.5 1.9c0 1.4.2 1.9.5 1.2.2-.6.2-1.8 0-2.5-.3-.6-.5-.1-.5 1.3zm23.9.6c0 1.1.3 1.4.6.6.3-.7.2-1.6-.1-1.9-.3-.4-.6.2-.5 1.3zM187.2 284c0 1.4.2 1.9.5 1.2.2-.6.2-1.8 0-2.5-.3-.6-.5-.1-.5 1.3zm192 8c0 1.9.2 2.7.5 1.7.2-.9.2-2.5 0-3.5-.3-.9-.5-.1-.5 1.8zm-277.1 10.6c0 1.1.3 1.4.6.6.3-.7.2-1.6-.1-1.9-.3-.4-.6.2-.5 1.3zm303.1 3.9c0 1.6.2 2.2.5 1.2.2-.9.2-2.3 0-3-.3-.6-.5.1-.5 1.8zm.1 10.5c0 2.5.2 3.5.4 2.2.2-1.2.2-3.2 0-4.5-.2-1.2-.4-.2-.4 2.3zm-.2 9.6c0 1.1.3 1.4.6.6.3-.7.2-1.6-.1-1.9-.3-.4-.6.2-.5 1.3zM208 328c.8.5 2.2.9 3 .9 1 0 .8-.3-.5-.9-2.7-1.2-4.3-1.2-2.5 0zm5.8 1.7c.6.2 1.8.2 2.5 0 .6-.3.1-.5-1.3-.5-1.4 0-1.9.2-1.2.5zm6.5 1c.9.2 2.3.2 3 0 .6-.3-.1-.5-1.8-.5-1.6 0-2.2.2-1.2.5zm5.5 0c.6.2 1.8.2 2.5 0 .6-.3.1-.5-1.3-.5-1.4 0-1.9.2-1.2.5zm30.5 1c3.2.2 8.1.2 11 0 2.9-.2.3-.3-5.8-.3-6 0-8.4.1-5.2.3zm117.5 0c.7.3 1.6.2 1.9-.1.4-.3-.2-.6-1.3-.5-1.1 0-1.4.3-.6.6zm-88 1c.7.3 1.6.2 1.9-.1.4-.3-.2-.6-1.3-.5-1.1 0-1.4.3-.6.6zm5.9 0c1.8.2 5 .2 7 0 2.1-.2.7-.4-3.2-.4-3.8 0-5.5.2-3.8.4zm96.3 26.8c-2.4 2.5-4.2 4.5-3.9 4.5.3 0 2.5-2 4.9-4.5 2.4-2.5 4.2-4.5 3.9-4.5-.3 0-2.5 2-4.9 4.5zM121.5 369c1 1.1 2 2 2.3 2 .3 0-.3-.9-1.3-2s-2-2-2.3-2c-.3 0 .3.9 1.3 2zm251.4 6.7c-1.3 1.6-1.2 1.7.4.4 1.6-1.3 2.1-2.1 1.3-2.1-.2 0-1 .8-1.7 1.7zM130.5 378c1 1.1 2 2 2.3 2 .3 0-.3-.9-1.3-2s-2-2-2.3-2c-.3 0 .3.9 1.3 2zm238.4 2.7c-1.3 1.6-1.2 1.7.4.4 1.6-1.3 2.1-2.1 1.3-2.1-.2 0-1 .8-1.7 1.7zm-11.4 8.3c-.3.6.1.7.9.4 1.8-.7 2.1-1.4.7-1.4-.6 0-1.3.4-1.6 1zm-204.7.7c.6.2 1.8.2 2.5 0 .6-.3.1-.5-1.3-.5-1.4 0-1.9.2-1.2.5zm7.5 1c.9.2 2.3.2 3 0 .6-.3-.1-.5-1.8-.5-1.6 0-2.2.2-1.2.5zm6.5 0c1.2.2 3 .2 4 0 .9-.3-.1-.5-2.3-.4-2.2 0-3 .2-1.7.4zm31.5 0c9.3.2 24.1.2 33 0 8.9-.1 1.4-.3-16.8-.3-18.1 0-25.4.2-16.2.3zm147 0c2 .2 5.4.2 7.5 0 2-.2.3-.4-3.8-.4s-5.8.2-3.7.4zm-65.1 1c3.7.2 10 .2 14 0 4-.1 1-.3-6.7-.3s-11 .1-7.3.3z"/><path fill="gray" d="M256 52.4c0 .2.7.7 1.6 1 .8.3 1.2.2.9-.4-.6-1-2.5-1.4-2.5-.6zm-8.8 5.1c0 1.6.2 2.2.5 1.2.2-.9.2-2.3 0-3-.3-.6-.5.1-.5 1.8zm1 9.5c0 1.9.2 2.7.5 1.7.2-.9.2-2.5 0-3.5-.3-.9-.5-.1-.5 1.8zm64.2 5.5c-1.8 1.4-1.7 1.4.8.4 2.2-1 3.1-.9 4.5.2 1.6 1.3 1.7 1.2.4-.4-1.7-2.1-3.1-2.2-5.7-.2zm-63.2 3c0 1.6.2 2.2.5 1.2.2-.9.2-2.3 0-3-.3-.6-.5.1-.5 1.8zm52.2 7.7-2.9 3.3 3.3-2.9c1.7-1.7 3.2-3.1 3.2-3.3 0-.8-.8-.1-3.6 2.9zm-104.5.5c-1.3 1.6-1.2 1.7.4.4 1.6-1.3 2.1-2.1 1.3-2.1-.2 0-1 .8-1.7 1.7zm10.6 1.3c1 1.1 2 2 2.3 2 .3 0-.3-.9-1.3-2s-2-2-2.3-2c-.3 0 .3.9 1.3 2zm57.7 2c0 1.4.2 1.9.5 1.2.2-.6.2-1.8 0-2.5-.3-.6-.5-.1-.5 1.3zm48.7 1.7-2.4 2.8 2.8-2.4c2.5-2.3 3.2-3.1 2.4-3.1-.2 0-1.4 1.2-2.8 2.7zm-118.7.3c0 1.4.2 1.9.5 1.2.2-.6.2-1.8 0-2.5-.3-.6-.5-.1-.5 1.3zm19.2.9c.7 1.1 4.6 3.5 4.6 2.8 0-.3-1.2-1.2-2.6-2.2-1.5-.9-2.3-1.2-2-.6zm78.5 2.8-2.4 2.8 2.8-2.4c2.5-2.3 3.2-3.1 2.4-3.1-.2 0-1.4 1.2-2.8 2.7zM197.5 94c1 1.1 2 2 2.3 2 .3 0-.3-.9-1.3-2s-2-2-2.3-2c-.3 0 .3.9 1.3 2zm110.9 1.8c-4.2 5.2-5.3 7.4-1.5 3.2 2.9-3.2 5.5-7 4.9-7-.2 0-1.7 1.7-3.4 3.8zM224 98.4c0 .2.8 1 1.8 1.7 1.5 1.3 1.6 1.2.3-.4s-2.1-2.1-2.1-1.3zm3 4c0 .2.8 1 1.8 1.7 1.5 1.3 1.6 1.2.3-.4s-2.1-2.1-2.1-1.3zm-18 1c0 .2.8 1 1.8 1.7 1.5 1.3 1.6 1.2.3-.4s-2.1-2.1-2.1-1.3zm90.9 1.3c-1.3 1.6-1.2 1.7.4.4 1.6-1.3 2.1-2.1 1.3-2.1-.2 0-1 .8-1.7 1.7zm-70.2 3.3c-.3 1.1-.1 2 .4 2s.9-.9.9-2-.2-2-.4-2-.6.9-.9 2zm65.3 0c-.9.6-1 1-.3 1 .6 0 1.5-.5 1.8-1 .8-1.2.4-1.2-1.5 0zm-69 5.6c-2.4.9-2.9 1.3-1.4 1.3 1.1.1 2.9-.6 4-1.4 2.2-1.7 2-1.7-2.6.1zm32.3 8.1c.9.2 2.3.2 3 0 .6-.3-.1-.5-1.8-.5-1.6 0-2.2.2-1.2.5zm6.5 0c.7.3 1.6.2 1.9-.1.4-.3-.2-.6-1.3-.5-1.1 0-1.4.3-.6.6zm-26.3 9.9c-.9 1.5-1.2 2.3-.6 2 1.1-.7 3.5-4.6 2.8-4.6-.3 0-1.2 1.2-2.2 2.6zm51.6 8.4c1.4 3.1 1.9 3.6 1.9 2.4 0-.6-.7-1.9-1.6-3-1.4-1.8-1.4-1.8-.3.6zm-60.2 4.7-2.4 2.8 2.8-2.4c2.5-2.3 3.2-3.1 2.4-3.1-.2 0-1.4 1.2-2.8 2.7zm63.1.7c0 .2.8 1 1.8 1.7 1.5 1.3 1.6 1.2.3-.4s-2.1-2.1-2.1-1.3zm-97.2 2.3c5.7.2 14.7.2 20 0 5.3-.1.7-.3-10.3-.3s-15.4.2-9.7.3zm-17 1c.6.2 1.8.2 2.5 0 .6-.3.1-.5-1.3-.5-1.4 0-1.9.2-1.2.5zm157 3c1.2.2 3.2.2 4.5 0 1.2-.2.2-.4-2.3-.4s-3.5.2-2.2.4zm-168.9 2c-1.3 1.6-1.2 1.7.4.4.9-.7 1.7-1.5 1.7-1.7 0-.8-.8-.3-2.1 1.3zm177.9-1c.7.3 1.6.2 1.9-.1.4-.3-.2-.6-1.3-.5-1.1 0-1.4.3-.6.6zm-184.9 6-2.4 2.8 2.8-2.4c2.5-2.3 3.2-3.1 2.4-3.1-.2 0-1.4 1.2-2.8 2.7zm210.6 9.3c2.7 2.7 5.1 5 5.4 5 .3 0-1.7-2.3-4.4-5-2.7-2.8-5.1-5-5.4-5-.3 0 1.7 2.2 4.4 5zm-118.2 7.7c3.7.2 9.6.2 13 0 3.4-.2.4-.3-6.8-.3-7.1 0-9.9.1-6.2.3zm-52.5 1c2.3.2 6.1.2 8.5 0 2.3-.2.4-.4-4.3-.4s-6.6.2-4.2.4zm16.5 0c.9.2 2.3.2 3 0 .6-.3-.1-.5-1.8-.5-1.6 0-2.2.2-1.2.5zm74.5 0c1.2.2 3.2.2 4.5 0 1.2-.2.2-.4-2.3-.4s-3.5.2-2.2.4zm20 1c.7.3 1.6.2 1.9-.1.4-.3-.2-.6-1.3-.5-1.1 0-1.4.3-.6.6zm14 1c.7.3 1.6.2 1.9-.1.4-.3-.2-.6-1.3-.5-1.1 0-1.4.3-.6.6zm9 1c.7.3 1.6.2 1.9-.1.4-.3-.2-.6-1.3-.5-1.1 0-1.4.3-.6.6zm47.3 2.3c1.4 3.1 1.9 3.6 1.9 2.4 0-.6-.7-1.9-1.6-3-1.4-1.8-1.4-1.8-.3.6zm-242.2 1.7c-1.3 1.6-1.2 1.7.4.4.9-.7 1.7-1.5 1.7-1.7 0-.8-.8-.3-2.1 1.3zm-4 5c-1.3 1.6-1.2 1.7.4.4.9-.7 1.7-1.5 1.7-1.7 0-.8-.8-.3-2.1 1.3zm249.7.8c.4.8 1.1 1.5 1.6 1.5.6 0 .5-.6-.2-1.5-.7-.8-1.4-1.5-1.6-1.5-.2 0-.1.7.2 1.5zm-209.3 6c0 2.7.2 3.8.4 2.2.2-1.5.2-3.7 0-5-.2-1.2-.4 0-.4 2.8zm-44.9-1.3-1.9 2.3 2.3-1.9c2.1-1.8 2.7-2.6 1.9-2.6-.2 0-1.2 1-2.3 2.2zm-5.5 6.5c-1.3 1.6-1.2 1.7.4.4.9-.7 1.7-1.5 1.7-1.7 0-.8-.8-.3-2.1 1.3zm-5 6-2.4 2.8 2.8-2.4c2.5-2.3 3.2-3.1 2.4-3.1-.2 0-1.4 1.2-2.8 2.7zm270.8 2.8c.3 2.7.7 5.2.9 5.4.7.8.2-5.4-.6-7.9-.6-1.7-.7-.9-.3 2.5zm-214.5-.5c0 1.4.2 1.9.5 1.2.2-.6.2-1.8 0-2.5-.3-.6-.5-.1-.5 1.3zm-61.8 4.2-1.9 2.3 2.3-1.9c2.1-1.8 2.7-2.6 1.9-2.6-.2 0-1.2 1-2.3 2.2zm253.8-.2c0 1.4.2 1.9.5 1.2.2-.6.2-1.8 0-2.5-.3-.6-.5-.1-.5 1.3zm24 6c0 1.9.2 2.7.5 1.7.2-.9.2-2.5 0-3.5-.3-.9-.5-.1-.5 1.8zm-282.3-.3c-1.3 1.6-1.2 1.7.4.4.9-.7 1.7-1.5 1.7-1.7 0-.8-.8-.3-2.1 1.3zm67.1.2c0 .5.5 1.3 1 1.6.6.3 1 .2 1-.4 0-.5-.4-1.3-1-1.6-.5-.3-1-.2-1 .4zm-71.1 4.8c-1.3 1.6-1.2 1.7.4.4.9-.7 1.7-1.5 1.7-1.7 0-.8-.8-.3-2.1 1.3zm72.3 1.3c0 1.4.2 1.9.5 1.2.2-.6.2-1.8 0-2.5-.3-.6-.5-.1-.5 1.3zm192 1.5c0 1.6.2 2.2.5 1.2.2-.9.2-2.3 0-3-.3-.6-.5.1-.5 1.8zm-49.1-1.3c.2.2 2 1.6 3.9 3.3l3.5 3-2.9-3.3c-1.7-1.7-3.4-3.2-4-3.2-.5 0-.7.1-.5.2zm-92.2 4.5-2.4 2.8 2.8-2.4c2.5-2.3 3.2-3.1 2.4-3.1-.2 0-1.4 1.2-2.8 2.7zm83.5-.5-1.9 2.3 2.3-1.9c1.2-1.1 2.2-2.1 2.2-2.3 0-.8-.8-.2-2.6 1.9zm19.6 7c2.4 2.7 4.5 4.8 4.7 4.8.8 0 0-.9-4.4-5l-4.8-4.5 4.5 4.7zm62.2-1.7c0 1.6.2 2.2.5 1.2.2-.9.2-2.3 0-3-.3-.6-.5.1-.5 1.8zm-89.3 3.2-3.4 3.8 3.8-3.4c2-1.9 3.7-3.6 3.7-3.8 0-.8-.8 0-4.1 3.4zm67.2 2.4c0 1.9.4 4.3.9 5.4.6 1.3.7.2.3-3-.7-5.9-1.3-7.2-1.2-2.4zm-152.2-.4c-1.3 1.6-1.2 1.7.4.4.9-.7 1.7-1.5 1.7-1.7 0-.8-.8-.3-2.1 1.3zm175.3 1.3c0 1.9.2 2.7.5 1.7.2-.9.2-2.5 0-3.5-.3-.9-.5-.1-.5 1.8zM252 239.3c0 .2 1.5 1.6 3.3 3.3l3.2 2.9-2.9-3.3c-2.8-3-3.6-3.7-3.6-2.9zm88 6.2c1.9 1.9 3.6 3.5 3.9 3.5.3 0-1-1.6-2.9-3.5s-3.6-3.5-3.9-3.5c-.3 0 1 1.6 2.9 3.5zm-43.1 1.2-2.4 2.8 2.8-2.4c2.5-2.3 3.2-3.1 2.4-3.1-.2 0-1.4 1.2-2.8 2.7zm99.3 1.3c0 1.9.2 2.7.5 1.7.2-.9.2-2.5 0-3.5-.3-.9-.5-.1-.5 1.8zm-183.8.2-1.9 2.3 2.3-1.9c2.1-1.8 2.7-2.6 1.9-2.6-.2 0-1.2 1-2.3 2.2zm-116.3.4c0 1.1.3 1.4.6.6.3-.7.2-1.6-.1-1.9-.3-.4-.6.2-.5 1.3zm163.9-.2c0 .2.8 1 1.8 1.7 1.5 1.3 1.6 1.2.3-.4s-2.1-2.1-2.1-1.3zm87 5.1c4 4.8 4.3 5.1 3.2 3-.6-1.1-2.1-2.9-3.4-4-2.2-1.9-2.2-1.9.2 1zm27.2.5c0 1.9.2 2.7.5 1.7.2-.9.2-2.5 0-3.5-.3-.9-.5-.1-.5 1.8zm-109.7 0c1 1.1 2 2 2.3 2 .3 0-.3-.9-1.3-2s-2-2-2.3-2c-.3 0 .3.9 1.3 2zm54.3-1.3c.6.2 1.8.2 2.5 0 .6-.3.1-.5-1.3-.5-1.4 0-1.9.2-1.2.5zm-75.8 3.8c1.9 1.9 3.6 3.5 3.9 3.5.3 0-1-1.6-2.9-3.5s-3.6-3.5-3.9-3.5c-.3 0 1 1.6 2.9 3.5zm46.9-1.8c-1.3 1.6-1.2 1.7.4.4 1.6-1.3 2.1-2.1 1.3-2.1-.2 0-1 .8-1.7 1.7zm107.3.3c0 1.4.2 1.9.5 1.2.2-.6.2-1.8 0-2.5-.3-.6-.5-.1-.5 1.3zm-169.8 3.2-1.9 2.3 2.3-1.9c2.1-1.8 2.7-2.6 1.9-2.6-.2 0-1.2 1-2.3 2.2zm147.8 2.3c0 1.6.2 2.2.5 1.2.2-.9.2-2.3 0-3-.3-.6-.5.1-.5 1.8zm-192 .5c0 1.4.2 1.9.5 1.2.2-.6.2-1.8 0-2.5-.3-.6-.5-.1-.5 1.3zm214.9.6c0 1.1.3 1.4.6.6.3-.7.2-1.6-.1-1.9-.3-.4-.6.2-.5 1.3zM203 263c0 1.1.4 2 .9 2s.7-.9.4-2c-.3-1.1-.7-2-.9-2-.2 0-.4.9-.4 2zm103.9-.3c-1.3 1.6-1.2 1.7.4.4 1.6-1.3 2.1-2.1 1.3-2.1-.2 0-1 .8-1.7 1.7zm26.6 2.3c1 1.1 2 2 2.3 2 .3 0-.3-.9-1.3-2s-2-2-2.3-2c-.3 0 .3.9 1.3 2zm17.6.4c0 1.1-.9 2.9-1.8 4-1.7 2-1.6 2 .6 0 1.4-1.3 2.1-2.9 1.8-4-.4-1.8-.5-1.8-.6 0zm-98.1 2.1c1.3 1.4 2.6 2.5 2.8 2.5.3 0-.5-1.1-1.8-2.5s-2.6-2.5-2.8-2.5c-.3 0 .5 1.1 1.8 2.5zm34-1.3c0 .9.5 2 1 2.3 1.3.8 1.3-.5 0-2.5-.8-1.3-1-1.3-1 .2zm89.2 1.8c0 1.9.2 2.7.5 1.7.2-.9.2-2.5 0-3.5-.3-.9-.5-.1-.5 1.8zm-110.1 1.3c-1.3 2.1-1.2 2.1.5.5 1-1 1.6-2 1.3-2.2-.3-.3-1.1.5-1.8 1.7zm34.8-.6c-1.3 1.6-1.2 1.7.4.4 1.6-1.3 2.1-2.1 1.3-2.1-.2 0-1 .8-1.7 1.7zm98.2-.1c0 1.1.3 1.4.6.6.3-.7.2-1.6-.1-1.9-.3-.4-.6.2-.5 1.3zm-60.7 1.8c1.1.9 2.4 1.6 3 1.6 1.2 0 .7-.5-2.4-1.9-2.4-1.1-2.4-1.1-.6.3zM185 273.6c0 1.6.5 3.6 1 4.4.6 1 .7.2.3-2.5-.7-4.9-1.3-5.8-1.3-1.9zm74.8-1.9c.7.3 1.6.2 1.9-.1.4-.3-.2-.6-1.3-.5-1.1 0-1.4.3-.6.6zm117.4 3.3c0 1.9.2 2.7.5 1.7.2-.9.2-2.5 0-3.5-.3-.9-.5-.1-.5 1.8zm1 7c0 1.9.2 2.7.5 1.7.2-.9.2-2.5 0-3.5-.3-.9-.5-.1-.5 1.8zm23-.5c0 1.1.3 2.9.8 4 1.1 2.5 1.1-.1 0-3.5-.6-2-.8-2.1-.8-.5zm-213.1 10.1c0 1.1.3 1.4.6.6.3-.7.2-1.6-.1-1.9-.3-.4-.6.2-.5 1.3zm192.1 5.4c0 1.9.2 2.7.5 1.7.2-.9.2-2.5 0-3.5-.3-.9-.5-.1-.5 1.8zm24 6c0 1.4.2 1.9.5 1.2.2-.6.2-1.8 0-2.5-.3-.6-.5-.1-.5 1.3zm-23 1.5c0 1.6.2 2.2.5 1.2.2-.9.2-2.3 0-3-.3-.6-.5.1-.5 1.8zm.9 7.1c0 1.1.3 1.4.6.6.3-.7.2-1.6-.1-1.9-.3-.4-.6.2-.5 1.3zm-278 3c0 1.1.3 1.4.6.6.3-.7.2-1.6-.1-1.9-.3-.4-.6.2-.5 1.3zm93.9 6.9c1.3 1.4 2.6 2.5 2.8 2.5.3 0-.5-1.1-1.8-2.5s-2.6-2.5-2.8-2.5c-.3 0 .5 1.1 1.8 2.5zm184.2.5c0 1.4.2 1.9.5 1.2.2-.6.2-1.8 0-2.5-.3-.6-.5-.1-.5 1.3zm-276.1 6.5c.1 1.9 1.8 5.1 1.8 3.5 0-.8-.4-2.2-.9-3-.5-.8-.9-1.1-.9-.5zm298 1.1c0 1.1.3 1.4.6.6.3-.7.2-1.6-.1-1.9-.3-.4-.6.2-.5 1.3zm-187.3 1.1c.7.3 1.6.2 1.9-.1.4-.3-.2-.6-1.3-.5-1.1 0-1.4.3-.6.6zm14.5 1c1.5.2 3.7.2 5 0 1.2-.2 0-.4-2.8-.4-2.7 0-3.8.2-2.2.4zm24 1c1.5.2 3.7.2 5 0 1.2-.2 0-.4-2.8-.4-2.7 0-3.8.2-2.2.4zm15 0c2.6.2 6.7.2 9 0s.2-.3-4.8-.3c-4.9 0-6.8.1-4.2.3zm47 1c9.2.2 24.2.2 33.5 0 9.2-.1 1.6-.3-16.8-.3-18.4 0-26 .2-16.7.3zM107 335c0 .8.5 2.2 1 3 .9 1.3 1 1.3 1 0 0-.8-.5-2.2-1-3-.9-1.3-1-1.3-1 0zm294.6 2.7c-.6 1.4-.5 1.5.5.6.7-.7 1-1.5.7-1.8-.3-.3-.9.2-1.2 1.2zm-3.1 7.4c-.4.6-.5 1.2-.2 1.5.2.3.7-.2 1-1.1.7-1.7.1-2-.8-.4zm-9.5 12.6-5.5 5.8 5.8-5.5c3.1-3 5.7-5.6 5.7-5.7 0-.8-1 .1-6 5.4zm-263 15.8c1.3 1.4 2.6 2.5 2.8 2.5.3 0-.5-1.1-1.8-2.5s-2.6-2.5-2.8-2.5c-.3 0 .5 1.1 1.8 2.5zm243.4 5.7-1.9 2.3 2.3-1.9c2.1-1.8 2.7-2.6 1.9-2.6-.2 0-1.2 1-2.3 2.2zm-212.6 10.5c.6.2 1.8.2 2.5 0 .6-.3.1-.5-1.3-.5-1.4 0-1.9.2-1.2.5zm17.5 1c1.5.2 3.7.2 5 0 1.2-.2 0-.4-2.8-.4-2.7 0-3.8.2-2.2.4zm76.5 0c.6.2 1.8.2 2.5 0 .6-.3.1-.5-1.3-.5-1.4 0-1.9.2-1.2.5zm9 0c2.9.2 7.4.2 10 0 2.6-.2.2-.3-5.3-.3s-7.6.1-4.7.3zm46 0c6.7.2 17.7.2 24.5 0 6.7-.1 1.2-.3-12.3-.3s-19 .2-12.2.3z"/><path fill="#BFBFBF" d="M252.3 52.7c.9.2 2.3.2 3 0 .6-.3-.1-.5-1.8-.5-1.6 0-2.2.2-1.2.5zm-3.9 1.7c-.3.7-.4 3.3-.2 5.7.3 4.3.4 4.2.8-1.4.5-5.8.4-6.8-.6-4.3zM261.2 67c0 1.4.2 1.9.5 1.2.2-.6.2-1.8 0-2.5-.3-.6-.5-.1-.5 1.3zm-12.1 4.6c0 1.1.3 1.4.6.6.3-.7.2-1.6-.1-1.9-.3-.4-.6.2-.5 1.3zm13 0c0 1.1.3 1.4.6.6.3-.7.2-1.6-.1-1.9-.3-.4-.6.2-.5 1.3zm52.9 1c.8.4 2.3 1.6 3.4 2.8l1.8 2.1-1.4-2.5c-.9-1.4-2.4-2.6-3.4-2.7-1.3-.2-1.4-.1-.4.3zm-7.3 4.6c-17.6 19-19.9 21.9-19.3 25 .7 3.5 3.2 5.8 6.1 5.6 1.7-.1 1.7-.1-.2-.5-2.5-.5-5.3-3.8-5.3-6.3 0-1.7 6.7-9.8 17.1-20.8 3.8-3.9 6.6-7.2 6.2-7.2-.3 0-2.4 1.9-4.6 4.2zm-43.6 5.4c0 1.1.3 1.4.6.6.3-.7.2-1.6-.1-1.9-.3-.4-.6.2-.5 1.3zm-66.4 1.2c-3 3.3-2.1 7.4 2.6 11.8 2.3 2.2 5.1 4.6 6.2 5.4 1.2.8-.5-.9-3.7-3.8-6.3-5.8-7.2-8.7-4.2-13 1.8-2.7 1.3-2.9-.9-.4zm6.3-.4c0 .2 1.2 1.2 2.8 2.1l2.7 1.8-1.9-2.1c-1.7-2-3.6-2.9-3.6-1.8zm110.6 3.4c-2.2 2.7-2.4 3.2-.7 1.7 2-1.7 4.7-5.5 3.9-5.5-.2 0-1.6 1.7-3.2 3.8zM253 88.5c0 .5.5 1.7 1 2.5s1 1 1 .5c0-.6-.5-1.7-1-2.5s-1-1.1-1-.5zm-40 .8c0 .3 3.3 3.3 7.3 6.8s5.7 4.6 3.7 2.5c-3.6-3.9-11-10.1-11-9.3zm93.6 7.3c-2.7 3-4.6 5.7-4.4 5.9.4.4 3.7-3.3 8.7-9.8 3.1-3.9.1-1.3-4.3 3.9zM264 93.3c0 3.5-5.2 4.1-7.7.9-.8-.9-1.3-1.1-1.3-.4 0 1.9 4.4 4.2 6.7 3.6 2.2-.6 4.1-4 2.9-5.1-.3-.4-.6.1-.6 1zm-53.1 11c1.5 1.9 7.1 6.1 7.1 5.4 0-.2-1.9-1.9-4.2-3.7-2.4-1.9-3.7-2.6-2.9-1.7zm17.9 2.4c.5 2.1.7 2.3 1 .9.2-1 0-2.2-.6-2.8-.6-.6-.7 0-.4 1.9zm69.1-1c-1.3 1.6-1.2 1.7.4.4 1.6-1.3 2.1-2.1 1.3-2.1-.2 0-1 .8-1.7 1.7zm-69.9 5.8c-.8.9-.8 1.5-.2 1.5 1.2 0 2.6-1.9 1.9-2.6-.2-.2-1 .2-1.7 1.1zm-7.4 1c1 .8 2.3 1.5 2.8 1.5.6 0 .1-.7-1-1.5-1-.8-2.3-1.5-2.8-1.5-.6 0-.1.7 1 1.5zm30.2 11.1c-3.8 2-3.6 2.8.2.9 1.7-.9 3-1.8 3-2 0-.7-.1-.6-3.2 1.1zm18.2-.7c1.9.4 4.5 1.3 5.8 2 1.2.6 2.2.9 2.2.7 0-1.2-6.1-3.6-8.7-3.5-2.5.1-2.5.2.7.8zm9.6 3.9c.5.4 2.3 1.8 3.9 3.2l3 2.5-2.9-3.3c-1.7-1.7-3.4-3.2-4-3.2-.6 0-.6.3 0 .8zm-37.7 3.4c-1.7 1.7-3.5 4.1-4.1 5.2-.6 1.2-.9 1.9-.6 1.6 5.5-6 8.9-10 8.3-10-.4 0-2 1.4-3.6 3.2zM288 138c.6 1.1 1.3 2 1.6 2 .2 0 0-.9-.6-2s-1.3-2-1.6-2c-.2 0 0 .9.6 2zm-56.6 5.8-3.1 3.7-20.9.6-20.9.6 20.7-.1c20.6-.1 20.7-.1 23.3-2.6 2.3-2.2 5.1-6 4.3-6-.2 0-1.7 1.7-3.4 3.8zm60.8 1.1c.8 1.4 2.5 3.1 3.9 3.9l2.4 1.4-2.2-1.8c-1.2-1.1-3-2.8-3.9-3.9-1.5-1.9-1.6-1.9-.2.4zm-109.4 3.8c.6.2 1.8.2 2.5 0 .6-.3.1-.5-1.3-.5-1.4 0-1.9.2-1.2.5zm-12 2.9c-3.9 2.1-3.5 2.8.5.8 3.7-1.9 4.4-2.4 3.1-2.4-.5.1-2.1.8-3.6 1.6zm130-.4c.9.4 8.9.6 17.7.6 18.7-.1 16.3-.6-4.7-1-8.1-.2-14 0-13 .4zm37 1.5c1.2.2 3.2.2 4.5 0 1.2-.2.2-.4-2.3-.4s-3.5.2-2.2.4zm12.3 1.7c1 .9 6.9 3.6 6.9 3.2 0-.6-5.5-3.6-6.6-3.6-.4 0-.5.2-.3.4zm-191.6 6.8c-3.3 3.5-11.3 12.8-17.6 20.8-6.4 8-17.3 21.2-24.3 29.5-19.9 23.7-22.2 30.4-18.7 55.2 1.1 7.4 2.2 13.7 2.6 14.1.4.4.5-.7.1-2.3-.3-1.7-1.2-8-2.1-14.2-2.9-21.7-.3-28.9 18-50.8 6.5-7.7 18.9-22.9 27.7-33.7 8.7-10.8 17.3-20.8 19.1-22.2 1.7-1.4 2.8-2.6 2.2-2.6-.5 0-3.6 2.8-7 6.2zm200-2.5c.6.5 3.2 2.6 5.8 4.7 4.3 3.4 11.8 11.8 15.5 17.2.7 1 .2-.1-1-2.5-2.3-4.4-14.8-17-19-19.1-1.3-.7-1.8-.8-1.3-.3zm-139.7 17c5 .2 13.4.2 18.5 0 5-.1.9-.3-9.3-.3-10.2 0-14.3.2-9.2.3zm57.5 0c3.2.2 8.1.2 11 0 2.9-.2.3-.3-5.8-.3-6 0-8.4.1-5.2.3zm-89.5 1c1.8.2 4.5.2 6 0s0-.4-3.3-.4-4.5.2-2.7.4zm114.9 0c1.8.2 5 .2 7 0 2.1-.2.7-.4-3.2-.4-3.8 0-5.5.2-3.8.4zm-122.8 3-2.4 2.6 3.3-2.3c3.3-2.5 3.8-3 2.4-3-.5 0-1.9 1.2-3.3 2.7zm134.6-2.2c2.5.9 10.7 1.2 9.4.4-.8-.5-3.4-.8-5.9-.8-2.5 0-4 .2-3.5.4zm14.8 1.2c.9.2 2.5.2 3.5 0 .9-.3.1-.5-1.8-.5-1.9 0-2.7.2-1.7.5zm8.5 1c.6.2 1.8.2 2.5 0 .6-.3.1-.5-1.3-.5-1.4 0-1.9.2-1.2.5zm8.4 1.8c8.8 2.4 13.8 6.5 18.7 15.5 3.7 6.6 4.1 5.9.7-.9-4.4-8.6-15.2-16.3-22.2-16-1.1 0 .2.7 2.8 1.4zm-170 7.5c0 1.4.2 1.9.5 1.2.2-.6.2-1.8 0-2.5-.3-.6-.5-.1-.5 1.3zm211.6 6.4c.9 2.5 1.8 4.3 2.1 4 .6-.6-2.1-8.4-2.9-8.4-.4 0 0 2 .8 4.4zM175.2 202c0 1.4.2 1.9.5 1.2.2-.6.2-1.8 0-2.5-.3-.6-.5-.1-.5 1.3zm192.9 7.6c0 1.1.3 1.4.6.6.3-.7.2-1.6-.1-1.9-.3-.4-.6.2-.5 1.3zm-192 3c0 1.1.3 1.4.6.6.3-.7.2-1.6-.1-1.9-.3-.4-.6.2-.5 1.3zm193.1 4.4c0 1.4.2 1.9.5 1.2.2-.6.2-1.8 0-2.5-.3-.6-.5-.1-.5 1.3zm21.9-.4c0 1.1.3 1.4.6.6.3-.7.2-1.6-.1-1.9-.3-.4-.6.2-.5 1.3zM177 220.9c0 .5.5 1.3 1 1.6.6.3 1 .2 1-.4 0-.5-.4-1.3-1-1.6-.5-.3-1-.2-1 .4zm215.1 2.7c0 1.1.3 1.4.6.6.3-.7.2-1.6-.1-1.9-.3-.4-.6.2-.5 1.3zM234.5 226c-.3.6.1.7.9.4 1.8-.7 2.1-1.4.7-1.4-.6 0-1.3.4-1.6 1zm83.5-.3c4.3 1.4 6.7 3.6 16.8 15.2 6 6.9 12.2 13.9 13.7 15.6l2.7 3-2.1-3.1c-2.4-3.6-20.8-24.5-25.2-28.7-1.6-1.5-3.9-2.7-5.2-2.6-1.4 0-1.6.2-.7.6zm-73.9 6.4c3.6 3.5 9.3 9.5 12.8 13.4 3.5 3.8 5.3 5.6 4.1 4-3.7-5.1-19.1-21.5-21.3-22.7-1.2-.6.8 1.8 4.4 5.3zm-66-3.5c0 1.1.3 1.4.6.6.3-.7.2-1.6-.1-1.9-.3-.4-.6.2-.5 1.3zm49.3 3.6c-13.3 13.9-23.4 26.3-23.4 28.7.1.9.7.4 1.7-1.4.9-1.7 7.4-9.6 14.5-17.8 7.1-8.1 12.7-14.7 12.5-14.7-.1 0-2.5 2.4-5.3 5.2zm84.5-1.5-3.4 3.8 3.8-3.4c2-1.9 3.7-3.6 3.7-3.8 0-.8-.8 0-4.1 3.4zm59.2-1.1c0 1.1.3 1.4.6.6.3-.7.2-1.6-.1-1.9-.3-.4-.6.2-.5 1.3zm22 2c0 1.1.3 1.4.6.6.3-.7.2-1.6-.1-1.9-.3-.4-.6.2-.5 1.3zm-92.7 12.2c-8.1 9-13 14.8-10.3 12.2 3-2.8 19.1-21 18.6-21-.3 0-4 3.9-8.3 8.8zm93.7-5.2c0 1.1.3 1.4.6.6.3-.7.2-1.6-.1-1.9-.3-.4-.6.2-.5 1.3zm-21 4c0 1.1.3 1.4.6.6.3-.7.2-1.6-.1-1.9-.3-.4-.6.2-.5 1.3zm22 3c0 1.1.3 1.4.6.6.3-.7.2-1.6-.1-1.9-.3-.4-.6.2-.5 1.3zm-213.9 2.9c0 1.6.2 2.2.5 1.2.2-.9.2-2.3 0-3-.3-.6-.5.1-.5 1.8zm192.9 1.1c0 1.1.3 1.4.6.6.3-.7.2-1.6-.1-1.9-.3-.4-.6.2-.5 1.3zM233.5 251c-.3.6.1.7.9.4 1.8-.7 2.1-1.4.7-1.4-.6 0-1.3.4-1.6 1zm14 9.5c5.5 5.8 10.7 10.5 11.5 10.5.8 0-.1-1.1-2-2.4-1.9-1.3-6.8-6-10.8-10.5-4-4.5-7.7-8.1-8.1-8.1-.4 0 3.8 4.7 9.4 10.5zm66.4-6.4-2.4 2 3-1.7c3.9-2.4 4-2.4 2.8-2.4-.6 0-2.1.9-3.4 2.1zm9.7-.4c1.2 1 5 4.9 8.4 8.8 3.4 3.8 7 7.4 7.9 7.9.8.5-2.2-3.2-6.9-8.2-4.6-5-9.1-9.4-10-9.7-.8-.3-.6.2.6 1.2zm-141.4 1.8c0 1.6.2 2.2.5 1.2.2-.9.2-2.3 0-3-.3-.6-.5.1-.5 1.8zm45.3 1.5c-2.1 2.2-3.5 4-3 3.9 1-.1 8.2-7.9 7.3-7.9-.2 0-2.2 1.8-4.3 4zm37.1-2c.6.8 1.6 2.4 2.2 3.5.6 1.1 1.2 1.5 1.2.8s-1-2.2-2.2-3.5c-1.3-1.3-1.8-1.7-1.2-.8zm40.9 8.1c-2.8 2.8-6.3 6-8 7-1.6 1-2.5 1.9-1.9 1.9 1.6 0 8.5-5.8 12.4-10.3 4.6-5.3 3.3-4.6-2.5 1.4zm45.7-1.1c0 1.4.2 1.9.5 1.2.2-.6.2-1.8 0-2.5-.3-.6-.5-.1-.5 1.3zm-83.1.6c0 1.1.3 1.4.6.6.3-.7.2-1.6-.1-1.9-.3-.4-.6.2-.5 1.3zm-49.3 3.9c-4.7 4.5-5.1 5.3-1.9 3.5 1.5-.8 7.8-8 6.9-8-.2 0-2.4 2.1-5 4.5zm179.3-1.9c0 1.1.3 1.4.6.6.3-.7.2-1.6-.1-1.9-.3-.4-.6.2-.5 1.3zM204 265.8c0 .9 3.8 5.2 4.6 5.2.2 0-.5-1.4-1.8-3-2.3-3.1-2.8-3.5-2.8-2.2zm145.2 2.2c-.6 1.1-2.6 2.4-4.4 2.9-2.5.7-2.7.9-1.1 1 2.2.1 8.2-4.3 7.3-5.3-.3-.3-1.1.4-1.8 1.4zm-85.2 2.1c-2.2 1.8-2.2 1.9-.3 1 1.2-.6 2.5-1.6 2.8-2.1.9-1.5.3-1.2-2.5 1.1zm25-1.4c0 .9 4 3.6 4.5 3.1.2-.2-.8-1.1-2.1-2.1s-2.4-1.4-2.4-1zm110.1 2.9c0 1.1.3 1.4.6.6.3-.7.2-1.6-.1-1.9-.3-.4-.6.2-.5 1.3zM185.6 280c.8 4.3 1.4 5.1 1.4 1.9 0-1.3-.5-3.1-1-3.9-.7-1.1-.8-.5-.4 2zm214.5-1.4c0 1.1.3 1.4.6.6.3-.7.2-1.6-.1-1.9-.3-.4-.6.2-.5 1.3zM100.7 287c.3 2.5 1 5.4 1.4 6.5.4 1.2.5-.1.2-3-.3-2.8-.9-5.7-1.4-6.5-.4-.8-.5.5-.2 3zm278.4-1.4c0 1.1.3 1.4.6.6.3-.7.2-1.6-.1-1.9-.3-.4-.6.2-.5 1.3zm22.6 2.9c.3 2.7.7 5.2.9 5.4.8.9.2-6.5-.6-8.4-.6-1.3-.7-.2-.3 3zm-214.6.1c0 1.1.3 1.4.6.6.3-.7.2-1.6-.1-1.9-.3-.4-.6.2-.5 1.3zm193 4c0 1.1.3 1.4.6.6.3-.7.2-1.6-.1-1.9-.3-.4-.6.2-.5 1.3zM188.6 296c.8 4.3 1.4 5.1 1.4 1.9 0-1.3-.5-3.1-1-3.9-.7-1.1-.8-.5-.4 2zm214.6 2c0 1.9.2 2.7.5 1.7.2-.9.2-2.5 0-3.5-.3-.9-.5-.1-.5 1.8zm-300.6 1.5c.8 3.7 1.4 4.5 1.4 1.9 0-1-.5-2.6-1-3.4-.8-1.1-.9-.7-.4 1.5zm278.5 1.1c0 1.1.3 1.4.6.6.3-.7.2-1.6-.1-1.9-.3-.4-.6.2-.5 1.3zM190.2 303c0 1.4.2 1.9.5 1.2.2-.6.2-1.8 0-2.5-.3-.6-.5-.1-.5 1.3zm-87.1 1.5c.1 1.9 1.8 5.1 1.8 3.5 0-.8-.4-2.2-.9-3-.5-.8-.9-1.1-.9-.5zm301 2.1c0 1.1.3 1.4.6.6.3-.7.2-1.6-.1-1.9-.3-.4-.6.2-.5 1.3zm-22 2c0 1.1.3 1.4.6.6.3-.7.2-1.6-.1-1.9-.3-.4-.6.2-.5 1.3zm-277.7 3.9c.2 1.1.8 4.9 1.1 8.5.4 3.6 1.2 7.2 1.7 8 .8 1.3.9 1.3.5-.1-.3-.8-.8-4.7-1.2-8.5-.4-3.8-1.2-7.6-1.7-8.4-.7-1.2-.8-1.1-.4.5zm87.6-1c0 .5.5 1.7 1 2.5s1 1 1 .5c0-.6-.5-1.7-1-2.5s-1-1.1-1-.5zm190.3 5c0 2.2.2 3 .4 1.7.2-1.2.2-3 0-4-.3-.9-.5.1-.4 2.3zm-182.5 7.3c4 3.8 11.5 7.3 15.1 7.1.9 0-1-.8-4.2-1.9-3.1-1-7.9-3.5-10.5-5.5l-4.7-3.7 4.3 4zm204.4 1.7c0 1.6.2 2.2.5 1.2.2-.9.2-2.3 0-3-.3-.6-.5.1-.5 1.8zm-22.2-.7c0 .6-1.2 2.5-2.7 4.4-2.2 2.7-2.3 2.9-.4 1.3 2.7-2.3 4.5-5.4 3.7-6.3-.3-.3-.6 0-.6.6zm21.1 6.8c0 1.1.3 1.4.6.6.3-.7.2-1.6-.1-1.9-.3-.4-.6.2-.5 1.3zm-183.8.1c.9.2 2.5.2 3.5 0 .9-.3.1-.5-1.8-.5-1.9 0-2.7.2-1.7.5zm6.5 0c.7.3 1.6.2 1.9-.1.4-.3-.2-.6-1.3-.5-1.1 0-1.4.3-.6.6zm14.5 1c2.6.2 6.7.2 9 0s.2-.3-4.8-.3c-4.9 0-6.8.1-4.2.3zm23.5.5c.9.4 9.8.6 19.7.6 21.2-.1 18.9-.6-4.7-1-9.2-.2-16 0-15 .4zm107.7-.2c-2.8.7-2.8.8-.5.9 1.4 0 3.2-.4 4-.9 1.7-1.1.8-1.1-3.5 0zm-263.9 1.3c.3 1 .9 1.5 1.2 1.2.3-.3 0-1.1-.7-1.8-1-.9-1.1-.8-.5.6zm2.1 9.9c4.6 15.8 17.1 31.8 30.1 38.7 3.5 1.8 6.5 3.1 6.7 2.9.2-.2-2.6-1.9-6.2-3.8-7.3-3.8-15.3-11.2-20.7-19.4-3.7-5.5-9.6-19.2-9.6-22 0-.9-.4-1.6-.9-1.6-.6 0-.3 2.4.6 5.2zm288.9-.5c-.6 1.4-.5 1.5.5.6.7-.7 1-1.5.7-1.8-.3-.3-.9.2-1.2 1.2zm-1.6 3.1c0 .4-5 6.2-11.1 12.7-6.1 6.6-13.4 14.7-16.1 18-2.8 3.3-6.7 7-8.7 8.2-2 1.2-3.1 2.3-2.6 2.3 2.2 0 7.7-4.8 14.8-13 4.1-4.7 11.3-12.8 16.1-17.8 7.6-8.2 9.8-11.2 8.1-11.2-.3 0-.5.4-.5.8zm-248.2 40.4c.5.5 1.6.8 2.3.6.8-.3.3-.7-1-1.1-1.7-.4-2.1-.3-1.3.5zm5 1.5c.7.3 1.6.2 1.9-.1.4-.3-.2-.6-1.3-.5-1.1 0-1.4.3-.6.6zm191.7.3-11 .6 10.7.2c6.3.1 10.9-.2 11.3-.8.3-.6.5-.9.3-.8-.2.1-5.2.5-11.3.8zm-182.2.7c2 .2 5.4.2 7.5 0 2-.2.3-.4-3.8-.4s-5.8.2-3.7.4zm25 0c7.5.2 19.9.2 27.5 0 7.5-.1 1.3-.3-13.8-.3-15.1 0-21.3.2-13.7.3zm50 0c4.8.2 12.5.2 17 0 4.5-.1.6-.3-8.8-.3-9.3 0-13 .2-8.2.3zm40.5 1c2.8.2 7.6.2 10.5 0 2.8-.2.5-.3-5.3-.3s-8.1.1-5.2.3z"/><g fill="#FFF" stroke-width="0"><path d="M249.7 53.7c-1.2 1.1-.7 14.4.7 22.3 2.8 15.3 7.6 22.9 12.3 19.5 1.4-1.1 1.8-2.6 1.7-7.7 0-6.5-5-31.3-6.7-33.6-1-1.3-6.9-1.7-8-.5zm56.4 26.5C295.7 91.2 289 99.3 289 101c0 2.7 3 6 5.4 6 2.8 0 7.4-4.3 16.2-15.2 9-11.2 9.9-13.1 7.8-16.3-.9-1.4-2.5-2.5-3.5-2.5-1.1 0-5 3.2-8.8 7.2zm-107.6 4.2c-3.3 4.9-1.9 7.4 10 17.3 6.1 5.1 12.5 10 14.2 11 3.2 1.7 3.3 1.7 4.7-.2 3.3-4.4 2.1-7.5-5.6-14.8-6.8-6.4-16.8-14-20.2-15.3-.9-.3-2.1.5-3.1 2zm56.5 38.5c-8.5 2.8-15.9 9-19.9 16.8-1 2.1-3.1 4.9-4.6 6.3-2.6 2.5-2.7 2.5-23.8 2.7-25.6.2-29.3.6-34.9 3.4-7.7 3.9-11.6 7.8-27.7 27.7-8.7 10.9-21.1 26-27.6 33.7-21.6 25.8-21.5 25.3-14 78.9 6.5 46.1 6.8 47.9 10.6 57.4 5.9 14.9 15.8 26.3 28.5 32.9 4.3 2.3 9.7 4.6 11.9 5.2 2.7.7 37 1.1 102.5 1.3l98.5.3 5.1-3c2.8-1.7 7.4-5.7 10.2-9 2.7-3.3 9.8-11.2 15.7-17.5 14.4-15.5 18-23 19.1-40 .5-7-.3-14.1-4-39.5-2.6-17.1-6-40.7-7.6-52.5-1.7-11.8-3.7-24.2-4.5-27.4-4.4-17.3-19.6-36.6-34.7-44l-7.7-3.8-22.1-.6c-27.4-.6-28.2-.9-34.8-12.2-5.4-9.2-7-11-13.1-14.3-5.2-2.9-16.5-4.4-21.1-2.8zm68 54.5c25.1 2.8 27.8 3.5 34.6 9.8 4.5 4.2 7.9 9.5 9.5 15.3 2.6 8.7 15 97.5 15.6 111.5.5 11.3.5 11.6-2.1 14.6-4.9 5.9-2.8 5.7-74.9 5.1-70.1-.7-88.5-1.5-96.4-4.1-6.5-2.1-11.8-6.7-14.8-12.7-3.2-6.3-7.5-27.7-12.4-62-8.7-60.3-9-69.9-2.5-76 2.4-2.2 3.5-2.4 16.7-3 26.9-1.2 110.9-.2 126.7 1.5z"/><path d="M233.8 227.1c-2.5 1.4-26.2 28.9-28.1 32.4-1.3 2.6-1.3 3.5-.2 6.1.7 1.7 2.3 3.9 3.5 4.7 3.3 2.3 5.9.6 16.3-10.7 6.4-6.9 9.5-9.6 11.2-9.6 1.7 0 4.6 2.5 10.1 8.5 7.4 8.2 12.7 12.5 15.3 12.5 2.3 0 6.1-4.9 6.1-7.8 0-3.7-3-8.2-14.6-21.3-8.7-9.9-15.2-15.9-17.1-15.9-.4 0-1.6.5-2.5 1.1zm69.6 14.1c-7.5 8.4-14.2 16.6-14.9 18.2-1.6 3.7-.3 7.8 3.2 10.6 2.2 1.7 2.8 1.8 5.2.6 1.4-.8 6.3-5.3 10.8-10 7.5-7.8 8.6-8.6 11.9-8.6 3.4 0 4.5.8 12.7 9.5 9.8 10.4 11.9 11.3 16.2 7 4.6-4.5 3.5-7.7-6.1-19-14.2-16.6-21.1-23.5-23.3-23.5-1.4 0-6.5 5-15.7 15.2z"/></g><path fill="#004040" d="M298.9 84.7c-1.3 1.6-1.2 1.7.4.4 1.6-1.3 2.1-2.1 1.3-2.1-.2 0-1 .8-1.7 1.7zm-86.1 62c.7.3 1.6.2 1.9-.1.4-.3-.2-.6-1.3-.5-1.1 0-1.4.3-.6.6zM324.5 227c1 1.1 2 2 2.3 2 .3 0-.3-.9-1.3-2s-2-2-2.3-2c-.3 0 .3.9 1.3 2zm-80.5 2.4c0 .2.8 1 1.8 1.7 1.5 1.3 1.6 1.2.3-.4s-2.1-2.1-2.1-1.3zm58.9 9.3c-1.3 1.6-1.2 1.7.4.4 1.6-1.3 2.1-2.1 1.3-2.1-.2 0-1 .8-1.7 1.7z"/><path fill="#408080" d="M224.8 176.7c.7.3 1.6.2 1.9-.1.4-.3-.2-.6-1.3-.5-1.1 0-1.4.3-.6.6zm68.1 74c-1.3 1.6-1.2 1.7.4.4 1.6-1.3 2.1-2.1 1.3-2.1-.2 0-1 .8-1.7 1.7zm-74 18c-1.3 1.6-1.2 1.7.4.4.9-.7 1.7-1.5 1.7-1.7 0-.8-.8-.3-2.1 1.3zm23.9 63c.6.2 1.8.2 2.5 0 .6-.3.1-.5-1.3-.5-1.4 0-1.9.2-1.2.5z"/><path fill="#404080" d="m294.4 90.2-1.9 2.3 2.3-1.9c2.1-1.8 2.7-2.6 1.9-2.6-.2 0-1.2 1-2.3 2.2zm21.4 60.5c.6.2 1.8.2 2.5 0 .6-.3.1-.5-1.3-.5-1.4 0-1.9.2-1.2.5zm54.2 15.7c0 .2.8 1 1.8 1.7 1.5 1.3 1.6 1.2.3-.4s-2.1-2.1-2.1-1.3zm-67.2 11.3c.7.3 1.6.2 1.9-.1.4-.3-.2-.6-1.3-.5-1.1 0-1.4.3-.6.6zm42.7 73.3c1 1.1 2 2 2.3 2 .3 0-.3-.9-1.3-2s-2-2-2.3-2c-.3 0 .3.9 1.3 2z"/></svg>